<?xml version="1.0" standalone="no"?><!DOCTYPE svg PUBLIC "-//W3C//DTD SVG 1.1//EN" "http://www.w3.org/Graphics/SVG/1.1/DTD/svg11.dtd"><svg t="1513685502403" class="icon" style="" viewBox="0 0 1024 1024" version="1.1" xmlns="http://www.w3.org/2000/svg" p-id="1894" xmlns:xlink="http://www.w3.org/1999/xlink" width="100" height="100"><defs><style type="text/css"></style></defs><path d="M796.950356 853.126284H624.341113v-47.37703c173.225273-32.354895 304.220746-184.246281 304.220746-366.918717 0-153.265686-92.245937-284.669458-224.251413-342.169033-0.021489 0.030699-0.046049 0.059352-0.073679 0.097214-45.62513-19.961634-95.945189-31.18935-148.944263-31.18935-53.008284 0-103.31811 11.227716-148.943241 31.182186l-0.073678-0.09005C274.270109 154.162102 182.024172 285.564851 182.024172 438.830537c0 182.680623 130.99445 334.562798 304.221769 366.918717v47.37703H313.636698c-33.106002 0-34.545794 34.502815-34.545794 34.502815v69.061912h552.406269V887.629099c-0.007163-19.003819-15.498996-34.502815-34.546817-34.502815M680.043762 124.279514c-32.695656 30.549783-76.435856 49.360198-124.750235 49.360198-48.313356 0-92.053556-18.810415-124.749212-49.353034 38.646182-15.482623 80.669274-24.215518 124.749212-24.215518 44.080961 0 86.10303 8.725732 124.750235 24.208354M371.869984 438.830537c0-101.32164 82.043574-183.385681 183.42252-183.385681 101.320617 0 183.423543 82.07325 183.423543 183.385681 0 101.334943-82.110089 183.415356-183.423543 183.415356-101.378945 0-183.42252-82.07939-183.42252-183.415356m280.525068 0c0-53.66013-43.456744-97.065709-97.102548-97.06571-18.475793 0-35.547611 5.421476-50.244335 14.362103 4.582365-1.432629 9.342786-2.376117 14.369266-2.376117 27.201525 0 49.226145 22.033829 49.226145 49.242518 0 27.179013-22.018479 49.197492-49.226145 49.197492-27.217898 0-49.212842-22.025643-49.212842-49.197492 0-5.058203 0.974188-9.810437 2.385327-14.391779-8.971325 14.694677-14.391778 31.760354-14.391778 50.244334 0 53.682643 43.412742 97.096409 97.094362 97.096409 53.652967-0.016373 97.102548-43.430138 97.102548-97.111758m0 0z" fill="#8a8a8a" p-id="1895"></path></svg>